<?xml version="1.0" standalone="no"?>
<!DOCTYPE svg PUBLIC "-//W3C//DTD SVG 20010904//EN"
 "http://www.w3.org/TR/2001/REC-SVG-20010904/DTD/svg10.dtd">
<svg version="1.0" xmlns="http://www.w3.org/2000/svg"
 width="112.000000pt" height="112.000000pt" viewBox="0 0 112.000000 112.000000"
 preserveAspectRatio="xMidYMid meet">

<g transform="translate(0.000000,112.000000) scale(0.100000,-0.100000)"
fill="#000000" stroke="none">
<path d="M181 782 c-69 -34 -76 -55 -76 -222 0 -134 2 -151 21 -177 44 -61 58
-63 394 -63 336 0 350 2 394 63 19 26 21 43 21 177 0 134 -2 151 -21 177 -44
61 -58 63 -394 63 -271 0 -309 -2 -339 -18z m668 -36 c42 -22 51 -55 51 -186
0 -131 -9 -164 -51 -186 -41 -21 -617 -21 -658 0 -42 22 -51 54 -51 189 1 131
9 160 51 183 36 20 619 20 658 0z"/>
<path d="M195 705 c-24 -23 -25 -30 -25 -145 0 -115 1 -122 25 -145 l24 -25
301 0 301 0 24 25 c24 23 25 30 25 145 0 115 -1 122 -25 145 l-24 25 -301 0
-301 0 -24 -25z"/>
<path d="M970 560 c0 -67 1 -70 20 -60 23 12 35 50 26 85 -3 13 -15 29 -26 35
-19 10 -20 7 -20 -60z"/>
</g>
</svg>
