<?xml version="1.0" standalone="no"?>
<!DOCTYPE svg PUBLIC "-//W3C//DTD SVG 20010904//EN"
 "http://www.w3.org/TR/2001/REC-SVG-20010904/DTD/svg10.dtd">
<svg version="1.0" xmlns="http://www.w3.org/2000/svg"
 width="112.000000pt" height="112.000000pt" viewBox="0 0 112.000000 112.000000"
 preserveAspectRatio="xMidYMid meet">

<g transform="translate(0.000000,112.000000) scale(0.100000,-0.100000)"
fill="#000000" stroke="none">
<path d="M394 902 c-84 -29 -147 -92 -176 -176 -15 -43 -17 -88 -18 -288 0
-231 1 -238 20 -238 19 0 20 7 20 233 0 270 7 304 75 372 68 68 102 75 372 75
226 0 233 1 233 20 0 19 -7 20 -237 20 -201 -1 -246 -3 -289 -18z"/>
<path d="M425 786 c-37 -17 -80 -62 -94 -99 -6 -16 -11 -99 -11 -187 0 -88 5
-171 11 -187 14 -38 57 -83 96 -99 40 -17 317 -19 360 -3 38 14 83 57 99 96
17 40 20 337 3 380 -14 38 -57 83 -96 99 -44 19 -325 19 -368 0z m365 -44 c60
-29 70 -64 70 -242 0 -245 -15 -260 -250 -260 -235 0 -250 15 -250 260 0 245
15 260 250 260 118 0 152 -3 180 -18z"/>
<path d="M451 706 c-87 -48 -50 -186 49 -186 51 0 100 49 100 99 0 75 -83 124
-149 87z"/>
<path d="M684 706 c-3 -8 -4 -25 -2 -38 2 -19 9 -23 38 -23 33 0 35 2 35 35 0
32 -3 35 -33 38 -21 2 -34 -2 -38 -12z m46 -26 c0 -5 -4 -10 -10 -10 -5 0 -10
5 -10 10 0 6 5 10 10 10 6 0 10 -4 10 -10z"/>
<path d="M671 586 c-66 -37 -67 -131 -1 -169 36 -21 64 -21 100 0 111 65 14
231 -99 169z"/>
<path d="M451 466 c-87 -48 -50 -186 49 -186 51 0 100 49 100 99 0 75 -83 124
-149 87z"/>
<path d="M684 346 c-3 -8 -4 -25 -2 -38 2 -19 9 -23 38 -23 33 0 35 2 35 35 0
32 -3 35 -33 38 -21 2 -34 -2 -38 -12z"/>
</g>
</svg>
