<?xml version="1.0" standalone="no"?>
<!DOCTYPE svg PUBLIC "-//W3C//DTD SVG 20010904//EN"
 "http://www.w3.org/TR/2001/REC-SVG-20010904/DTD/svg10.dtd">
<svg version="1.0" xmlns="http://www.w3.org/2000/svg"
 width="112.000000pt" height="112.000000pt" viewBox="0 0 112.000000 112.000000"
 preserveAspectRatio="xMidYMid meet">

<g transform="translate(0.000000,112.000000) scale(0.100000,-0.100000)"
fill="#000000" stroke="none">
<path d="M281 902 c-19 -9 -44 -30 -55 -45 -20 -27 -21 -41 -21 -297 0 -256 1
-270 21 -297 43 -59 65 -63 334 -63 269 0 291 4 334 63 20 27 21 41 21 297 0
256 -1 270 -21 297 -43 59 -65 63 -334 63 -214 0 -249 -2 -279 -18z m548 -36
c47 -25 51 -48 51 -306 0 -258 -4 -281 -51 -306 -37 -19 -494 -21 -534 -2 -51
23 -55 46 -55 310 1 259 4 278 51 304 36 20 499 20 538 0z"/>
<path d="M420 620 c-10 -19 -50 -128 -50 -137 0 -1 6 -3 14 -3 7 0 16 9 19 20
4 14 14 20 35 20 22 0 32 -6 37 -20 3 -11 13 -20 21 -20 11 0 7 17 -14 77 -30
83 -44 97 -62 63z m35 -57 c5 -19 2 -23 -14 -23 -23 0 -24 3 -15 38 7 26 18
20 29 -15z"/>
<path d="M543 623 c-13 -9 -23 -22 -23 -31 0 -13 3 -12 20 3 20 18 20 17 20
-48 0 -53 3 -67 15 -67 12 0 15 15 15 74 0 81 -9 94 -47 69z"/>
<path d="M664 625 c-26 -18 -37 -66 -23 -102 12 -33 26 -43 59 -43 33 0 50 17
50 50 0 31 -17 50 -45 50 -12 0 -26 -5 -33 -12 -9 -9 -12 -8 -12 4 0 28 29 49
50 38 32 -17 45 -12 25 10 -21 24 -43 25 -71 5z m56 -80 c10 -12 10 -18 0 -30
-25 -30 -61 -7 -46 30 3 8 12 15 19 15 8 0 20 -7 27 -15z"/>
</g>
</svg>
