<?xml version="1.0" standalone="no"?>
<!DOCTYPE svg PUBLIC "-//W3C//DTD SVG 20010904//EN"
 "http://www.w3.org/TR/2001/REC-SVG-20010904/DTD/svg10.dtd">
<svg version="1.0" xmlns="http://www.w3.org/2000/svg"
 width="112.000000pt" height="112.000000pt" viewBox="0 0 112.000000 112.000000"
 preserveAspectRatio="xMidYMid meet">

<g transform="translate(0.000000,112.000000) scale(0.100000,-0.100000)"
fill="#000000" stroke="none">
<path d="M201 841 c-76 -95 -113 -234 -94 -345 23 -136 127 -296 158 -246 4 6
-8 27 -26 47 -17 21 -46 67 -63 103 -28 58 -31 74 -31 160 0 86 3 102 31 160
17 36 46 82 63 103 32 35 34 57 6 57 -7 0 -27 -18 -44 -39z"/>
<path d="M855 870 c-4 -6 8 -27 26 -47 17 -21 46 -67 63 -103 28 -58 31 -74
31 -160 0 -86 -3 -101 -31 -160 -17 -36 -45 -82 -63 -104 -30 -38 -33 -56 -6
-56 19 0 71 69 101 135 38 81 51 170 37 249 -23 136 -127 296 -158 246z"/>
<path d="M303 762 c-53 -72 -67 -114 -67 -202 0 -70 4 -93 23 -130 45 -86 79
-118 95 -91 3 5 -10 32 -29 61 -19 28 -39 68 -45 88 -22 81 -8 153 45 232 19
29 32 56 29 61 -10 17 -30 9 -51 -19z"/>
<path d="M766 781 c-3 -5 10 -32 29 -61 74 -110 74 -210 0 -320 -19 -29 -32
-56 -29 -61 16 -27 50 5 95 91 34 65 34 195 0 260 -45 86 -79 118 -95 91z"/>
<path d="M614 650 c-56 -22 -72 -108 -30 -156 45 -53 136 -27 136 38 0 25 -3
28 -35 28 -19 0 -35 -4 -35 -10 0 -5 9 -10 20 -10 26 0 26 -26 -1 -41 -48 -25
-93 34 -70 93 14 37 44 44 86 18 27 -17 35 -18 35 -7 0 33 -66 63 -106 47z"/>
<path d="M410 601 l0 -50 43 2 c40 2 42 1 42 -28 0 -36 -27 -45 -55 -20 -28
26 -46 14 -22 -14 21 -27 71 -33 96 -11 9 7 16 27 16 45 0 42 -30 70 -65 61
-23 -6 -26 -4 -23 16 2 18 10 22 42 22 22 1 41 7 43 14 4 9 -12 12 -56 12
l-61 0 0 -49z"/>
</g>
</svg>
