<?xml version="1.0" standalone="no"?>
<!DOCTYPE svg PUBLIC "-//W3C//DTD SVG 20010904//EN"
 "http://www.w3.org/TR/2001/REC-SVG-20010904/DTD/svg10.dtd">
<svg version="1.0" xmlns="http://www.w3.org/2000/svg"
 width="112.000000pt" height="112.000000pt" viewBox="0 0 112.000000 112.000000"
 preserveAspectRatio="xMidYMid meet">

<g transform="translate(0.000000,112.000000) scale(0.100000,-0.100000)"
fill="#000000" stroke="none">
<path d="M477 930 c-109 -28 -211 -113 -261 -220 -28 -58 -31 -75 -31 -160 0
-85 3 -102 31 -160 39 -83 111 -155 194 -194 58 -28 75 -31 160 -31 85 0 102
3 160 31 83 39 155 111 194 194 28 58 31 75 31 160 0 85 -3 102 -31 160 -63
134 -188 219 -332 226 -42 2 -94 -1 -115 -6z m233 -67 c179 -79 255 -296 167
-469 -82 -160 -283 -233 -443 -160 -223 102 -278 379 -110 554 100 106 252
135 386 75z"/>
<path d="M349 639 c-15 -15 -19 -28 -14 -47 6 -29 15 -37 65 -64 37 -21 37
-51 2 -56 -17 -3 -25 2 -29 17 -6 23 -43 30 -43 8 0 -31 31 -57 69 -57 44 0
71 24 71 63 0 26 -40 67 -66 67 -22 0 -36 36 -19 50 18 15 45 6 45 -15 0 -8 9
-15 20 -15 24 0 26 18 4 48 -20 29 -76 30 -105 1z"/>
<path d="M514 635 c-40 -62 -22 -178 30 -191 44 -11 76 4 92 41 25 60 11 145
-26 165 -35 19 -78 12 -96 -15z m84 -36 c16 -30 9 -96 -12 -118 -26 -25 -51 8
-51 68 0 75 35 103 63 50z"/>
<path d="M684 635 c-24 -37 -11 -69 39 -97 48 -27 58 -61 19 -66 -17 -3 -25 2
-29 17 -7 26 -43 28 -43 3 0 -29 33 -52 73 -52 76 0 89 87 18 122 -45 22 -53
31 -45 51 9 24 41 21 49 -4 9 -26 41 -21 37 6 -6 33 -23 45 -63 45 -30 0 -42
-5 -55 -25z"/>
</g>
</svg>
